<svg xmlns="http://www.w3.org/2000/svg" width="23.554" height="20" viewBox="0 0 23.554 20"><defs><style>.a{fill:#f33;}</style></defs><path class="a" d="M16.552,27.034a6.946,6.946,0,0,0-4.775,1.879A7,7,0,0,0,0,34.036,9.73,9.73,0,0,0,1.86,39.6a17.822,17.822,0,0,0,3.924,3.978,28.166,28.166,0,0,0,5.614,3.3l.376.156.377-.154A27.757,27.757,0,0,0,17.768,43.6a17.652,17.652,0,0,0,3.926-3.976,9.786,9.786,0,0,0,1.86-5.592A7.01,7.01,0,0,0,16.552,27.034ZM11.779,44.888C9.936,44.035,1.972,40,1.972,34.036a5.03,5.03,0,0,1,9.023-3.059L11.777,32l.782-1.019a5.03,5.03,0,0,1,9.023,3.059C21.582,40.042,13.621,44.043,11.779,44.888Z" transform="translate(0 -27.034)"/></svg>