<svg xmlns="http://www.w3.org/2000/svg" xmlns:xlink="http://www.w3.org/1999/xlink" width="231.94" height="54" viewBox="0 0 231.94 54"><defs><linearGradient id="a" x1="0.851" x2="0.085" y2="1" gradientUnits="objectBoundingBox"><stop offset="0" stop-color="#ff08e6"/><stop offset="1" stop-color="#355cfc"/></linearGradient><linearGradient id="b" x1="1" y1="0.939" x2="0.017" gradientUnits="objectBoundingBox"><stop offset="0" stop-color="#355cfc"/><stop offset="1" stop-color="#ff08e6"/></linearGradient></defs><g transform="translate(-150 -23)"><g transform="translate(146.5 23)"><path d="M8.589,0A5.09,5.09,0,0,0,3.5,5.089V54l18-12,18,12V6a6.018,6.018,0,0,1,6-6Z" fill="url(#a)"/><path d="M45.41,0A6.015,6.015,0,0,0,39.5,6V23h11V5.135A5.132,5.132,0,0,0,45.41,0Z" fill="#ff08e6"/></g><path d="M33.682-62.24a5.144,5.144,0,0,1-1.8-4.034,5.376,5.376,0,0,1,2.259-4.614,10.646,10.646,0,0,1,6.354-1.643h3.164v-1.494a3.651,3.651,0,0,0-1.02-2.716,4.1,4.1,0,0,0-3.006-1.011,4.737,4.737,0,0,0-2.918.879,2.589,2.589,0,0,0-1.177,2.127h-3.27A4.486,4.486,0,0,1,33.278-77.5a6.9,6.9,0,0,1,2.742-2.1,9.221,9.221,0,0,1,3.805-.773,7.521,7.521,0,0,1,5.151,1.643A5.928,5.928,0,0,1,46.91-74.2v8.754a10.7,10.7,0,0,0,.669,4.166V-61h-3.41a6.8,6.8,0,0,1-.457-2A7.259,7.259,0,0,1,38.3-60.648,6.713,6.713,0,0,1,33.682-62.24Zm1.45-4.491a2.96,2.96,0,0,0,1.02,2.39,3.919,3.919,0,0,0,2.619.861,5.716,5.716,0,0,0,2.9-.791,4.782,4.782,0,0,0,1.986-2.056v-3.9H41.109Q35.133-70.229,35.132-66.73ZM-30.3-63.338a10.3,10.3,0,0,1-2.4-7.12v-.228a11.228,11.228,0,0,1,1.1-5.027,8.2,8.2,0,0,1,3.059-3.446,8.325,8.325,0,0,1,4.473-1.212,8.023,8.023,0,0,1,6.285,2.689,10.348,10.348,0,0,1,2.4,7.154v.229a11.329,11.329,0,0,1-1.064,4.983,8.081,8.081,0,0,1-3.041,3.437,8.426,8.426,0,0,1-4.544,1.23A8,8,0,0,1-30.3-63.338Zm2.347-12.446A8.833,8.833,0,0,0-29.432-70.3a8.14,8.14,0,0,0,1.468,5.081A4.7,4.7,0,0,0-24.035-63.3,4.668,4.668,0,0,0-20.1-65.245a8.892,8.892,0,0,0,1.459-5.44,8.124,8.124,0,0,0-1.485-5.071A4.721,4.721,0,0,0-24.071-77.7,4.669,4.669,0,0,0-27.955-75.784ZM-59.569-63.338a10.3,10.3,0,0,1-2.4-7.12v-.228a11.228,11.228,0,0,1,1.1-5.027,8.192,8.192,0,0,1,3.058-3.446,8.33,8.33,0,0,1,4.474-1.212,8.021,8.021,0,0,1,6.284,2.689,10.348,10.348,0,0,1,2.4,7.154v.229a11.329,11.329,0,0,1-1.064,4.983,8.079,8.079,0,0,1-3.04,3.437,8.426,8.426,0,0,1-4.544,1.23A8,8,0,0,1-59.569-63.338Zm2.346-12.446A8.838,8.838,0,0,0-58.7-70.3a8.135,8.135,0,0,0,1.468,5.081A4.7,4.7,0,0,0-53.3-63.3a4.669,4.669,0,0,0,3.938-1.943,8.9,8.9,0,0,0,1.459-5.44,8.119,8.119,0,0,0-1.486-5.071A4.72,4.72,0,0,0-53.338-77.7,4.671,4.671,0,0,0-57.223-75.784ZM-82.174-63.9a13.083,13.083,0,0,1-2.733-8.7v-2.461a14.58,14.58,0,0,1,1.274-6.275A9.519,9.519,0,0,1-80.022-85.5a10.06,10.06,0,0,1,5.414-1.45,9.246,9.246,0,0,1,6.538,2.276,9.531,9.531,0,0,1,2.866,6.3H-68.6A7.35,7.35,0,0,0-70.5-82.81a5.768,5.768,0,0,0-4.1-1.375,6.039,6.039,0,0,0-5.072,2.392q-1.837,2.392-1.837,6.808v2.48a11.293,11.293,0,0,0,1.741,6.633,5.623,5.623,0,0,0,4.869,2.462,6.5,6.5,0,0,0,4.316-1.274,7.073,7.073,0,0,0,2-4.438H-65.2a9.416,9.416,0,0,1-3,6.267,9.821,9.821,0,0,1-6.706,2.206A9.019,9.019,0,0,1-82.174-63.9ZM76.125-61,69.5-69.807,67.459-67.68V-61H64.207V-88h3.252v16.33L69.2-73.761l5.924-6.259h3.955l-7.4,7.946L79.94-61ZM52.007-61V-80.02h3.164l.053,2.2a5.063,5.063,0,0,1,4.535-2.549,3.323,3.323,0,0,1,1.441.246V-77.1a9.658,9.658,0,0,0-1.6-.123A4.285,4.285,0,0,0,55.26-74.5V-61ZM24.269-61V-73.551a4.368,4.368,0,0,0-.931-3.05,4.106,4.106,0,0,0-3.129-1.011A4.313,4.313,0,0,0,17.2-76.531a4.384,4.384,0,0,0-1.389,2.91V-61h-3.27V-73.463q0-4.149-4.061-4.149a4.35,4.35,0,0,0-4.377,2.725V-61H.856V-80.02H3.931l.088,2.11a7.024,7.024,0,0,1,5.643-2.461q3.989,0,5.432,3.058a7.212,7.212,0,0,1,2.47-2.215,7.294,7.294,0,0,1,3.595-.843q6.259,0,6.363,6.627V-61Zm-35.578,0V-80.02h3.164l.052,2.2a5.064,5.064,0,0,1,4.535-2.549,3.33,3.33,0,0,1,1.442.246V-77.1a9.669,9.669,0,0,0-1.6-.123A4.286,4.286,0,0,0-8.057-74.5V-61Zm-28.986,0V-88h3.252v27Z" transform="translate(302 124)" fill="url(#b)"/></g></svg>